<?xml version="1.0" encoding="iso-8859-1"?>
<!-- Uploaded to: SVG Repo, www.svgrepo.com, Generator: SVG Repo Mixer Tools -->
<!DOCTYPE svg PUBLIC "-//W3C//DTD SVG 1.1//EN" "http://www.w3.org/Graphics/SVG/1.1/DTD/svg11.dtd">
<svg fill="#000000" version="1.1" id="Capa_1" xmlns="http://www.w3.org/2000/svg" xmlns:xlink="http://www.w3.org/1999/xlink" 
	 width="800px" height="800px" viewBox="0 0 279.011 279.011"
	 xml:space="preserve">
<g>
	<path d="M143.067,83.981c0,0-4.812,0-10.76,0c-5.945,0-10.76,11.013-10.76,24.596v51.438L11.869,232.33
		c-11.346,7.482-15.237,21.587-8.689,31.507s21.041,11.901,32.387,4.426l106.868-70.46l100.412,74.85
		c10.893,8.118,25.406,6.93,32.426-2.666s3.867-23.947-7.025-32.06l-103.655-77.24v-37.445
		c24.188-8.815,41.505-32.048,41.505-59.244c0-34.752-28.276-63.026-63.029-63.026c-26.273,0-48.833,16.153-58.285,39.052
		c-5.182,12.556,4.9,23.974,16.78,23.974c11.881,0,21.251-7.999,27.382-14.124c3.615-3.621,8.608-5.86,14.123-5.86
		c11.017,0,19.987,8.965,19.987,19.984S154.083,83.981,143.067,83.981z"/>
</g>
</svg>