<?xml version="1.0" encoding="iso-8859-1"?>
<!-- Uploaded to: SVG Repo, www.svgrepo.com, Generator: SVG Repo Mixer Tools -->
<svg height="800px" width="800px" version="1.1" id="Layer_1" xmlns="http://www.w3.org/2000/svg" xmlns:xlink="http://www.w3.org/1999/xlink" 
	 viewBox="0 0 512.001 512.001" xml:space="preserve">
<path style="fill:#FFFFFF;" d="M256.001,504c-136.966,0-248-111.033-248-248S119.034,8,256.001,8s248,111.033,248,248
	C503.846,392.903,392.904,503.846,256.001,504z"/>
<path style="fill:#E21B1B;" d="M256.001,16c132.548,0,240,107.452,240,240s-107.452,240-240,240s-240-107.452-240-240
	C16.15,123.514,123.514,16.15,256.001,16 M256.001,0C114.616,0,0,114.615,0,256s114.615,256,256,256s256-114.616,256-256
	S397.385,0,256.001,0z"/>
<path style="fill:#FFFFFF;" d="M256.001,467.896c-117.027,0-211.896-94.869-211.896-211.896S138.974,44.104,256.001,44.104
	S467.897,138.973,467.897,256l0,0C467.765,372.972,372.973,467.764,256.001,467.896z"/>
<path style="fill:#CCCCCC;" d="M256.001,48.104c114.818,0,207.896,93.078,207.896,207.896s-93.078,207.896-207.896,207.896
	S48.104,370.818,48.104,256C48.232,141.236,141.236,48.232,256.001,48.104 M256.001,40.104
	c-119.236,0-215.896,96.66-215.896,215.896s96.659,215.896,215.896,215.896S471.897,375.236,471.897,256l0,0
	C471.897,136.764,375.237,40.104,256.001,40.104z"/>
<path d="M294.656,117.224c0.655,22.231-16.457,40.968-38.656,42.328c-22.2-1.359-39.311-20.096-38.656-42.328h-49.056L99.08,152.84
	l27.256,76.76l39.48-17.208v198.4h180.376V212.392l39.472,17.208l27.256-76.92l-69.208-35.448L294.656,117.224z"/>
<g>
	<path style="fill:#E21B1B;" d="M206.096,296.424l-15.624-44.648l11.792-4.128l15,13.12c4.489,3.973,8.714,8.236,12.648,12.76
		l0.2-0.072c-2.804-5.962-5.267-12.078-7.376-18.32l-4.568-13.056l9.272-3.2l15.624,44.648l-10.6,3.712l-15.56-13.888
		c-4.649-4.114-9.079-8.469-13.272-13.048l-0.168,0.128c2.328,5.808,4.664,12.056,7.2,19.336l4.712,13.456L206.096,296.424z"/>
	<path style="fill:#E21B1B;" d="M254.504,264.92c1.792,4.056,6.584,4.608,11.304,2.96c3.043-1.03,5.902-2.537,8.472-4.464
		l3.712,6.352c-3.259,2.708-6.999,4.779-11.024,6.104c-8.191,3.969-18.048,0.545-22.017-7.645c-0.436-0.9-0.79-1.838-1.056-2.803
		c-3.719-8.741,0.354-18.842,9.095-22.56c0.4-0.17,0.806-0.325,1.217-0.464c7.881-2.891,16.614,1.153,19.505,9.035
		c0.248,0.678,0.448,1.371,0.598,2.078c0.467,1.331,0.823,2.698,1.064,4.088L254.504,264.92z M263.953,253.88
		c-0.727-3.341-4.026-5.461-7.367-4.733c-0.214,0.047-0.425,0.105-0.633,0.174c-3.409,1.42-5.127,5.244-3.928,8.736L263.953,253.88z
		"/>
	<path style="fill:#E21B1B;" d="M281.496,233.68l7.2,12.344c1.848,3.144,3.768,6.496,5.6,10.016h0.136
		c-0.632-3.944-1.008-8-1.328-11.44l-1.208-14.512l7.952-2.784l7.76,11.784c2.136,3.344,4.272,6.68,6.232,10.16l0.136-0.048
		c-0.8-3.872-1.456-7.744-2.016-11.712l-1.72-13.824l9.872-3.456L321.53,256l-9.472,3.32l-7.032-10.328
		c-1.912-2.896-3.528-5.6-5.6-9.352l-0.136,0.056c0.713,3.566,1.184,7.178,1.408,10.808l0.736,12.536l-9.432,3.36l-20.8-29.128
		L281.496,233.68z"/>
</g>
</svg>